<svg width="32" height="32" viewBox="0 0 32 32" fill="none" xmlns="http://www.w3.org/2000/svg">
<path d="M16.1801 17.17C16.0606 17.155 15.9397 17.155 15.8201 17.17C14.5481 17.1272 13.3424 16.5915 12.458 15.6763C11.5735 14.761 11.0794 13.5378 11.0801 12.265C11.0801 9.54998 13.2701 7.34498 16.0001 7.34498C17.2893 7.34274 18.5277 7.84719 19.4484 8.74958C20.369 9.65197 20.8982 10.88 20.9218 12.169C20.9455 13.4579 20.4616 14.7045 19.5746 15.64C18.6876 16.5755 17.4685 17.125 16.1801 17.17ZM26.1101 27.07C23.3535 29.6036 19.7442 31.0066 16.0001 31C12.1001 31 8.56014 29.515 5.89014 27.07C6.04014 25.66 6.94014 24.28 8.54514 23.2C12.6551 20.47 19.3751 20.47 23.4551 23.2C25.0601 24.28 25.9601 25.66 26.1101 27.07Z" stroke="#D1A658" stroke-width="1.5" stroke-linecap="round" stroke-linejoin="round"/>
<path d="M16 31C24.2845 31 31 24.2845 31 16C31 7.7155 24.2845 1 16 1C7.7155 1 1 7.7155 1 16C1 24.2845 7.7155 31 16 31Z" stroke="#D1A658" stroke-width="1.5" stroke-linecap="round" stroke-linejoin="round"/>
</svg>
