<svg width="19" height="21" viewBox="0 0 19 21" fill="none" xmlns="http://www.w3.org/2000/svg">
<path fill-rule="evenodd" clip-rule="evenodd" d="M16.8954 17.9583C17.51 17.0208 17.7392 16.5417 18.2079 15.4896C14.7496 14.1771 14.1975 9.25001 17.6142 7.36459C16.5725 6.05209 15.1037 5.29168 13.7183 5.29168C12.7183 5.29168 12.0308 5.55209 11.4162 5.79168C10.8954 5.98959 10.4267 6.16668 9.84333 6.16668C9.21833 6.16668 8.66625 5.96876 8.08292 5.76043C7.4475 5.53126 6.78083 5.29168 5.9475 5.29168C4.39542 5.29168 2.73917 6.23959 1.68708 7.86459C0.207915 10.1563 0.468332 14.4479 2.85375 18.1146C3.70792 19.4271 4.85375 20.8958 6.34333 20.9167C6.96833 20.9271 7.37458 20.7396 7.8225 20.5417C8.33292 20.3125 8.885 20.0625 9.85375 20.0625C10.8225 20.0521 11.3642 20.3125 11.8746 20.5417C12.3121 20.7396 12.7079 20.9271 13.3225 20.9167C14.8329 20.8958 16.0412 19.2708 16.8954 17.9583ZM13.4996 0.0833435C13.6662 1.22918 13.1975 2.36459 12.5829 3.15626C11.9267 4.01043 10.7808 4.67709 9.67667 4.63543C9.47875 3.53126 9.98917 2.39584 10.6142 1.63543C11.3121 0.802093 12.4892 0.15626 13.4996 0.0833435Z" fill="white"/>
</svg>
