<svg width="21" height="21" viewBox="0 0 21 21" fill="none" xmlns="http://www.w3.org/2000/svg">
<path d="M20.9163 14.8646C20.9163 18.6563 18.6559 20.9167 14.8643 20.9167H13.6247C13.0518 20.9167 12.583 20.4479 12.583 19.875V13.8646C12.583 13.5833 12.8122 13.3438 13.0934 13.3438L14.9268 13.3125C15.0726 13.3021 15.1976 13.1979 15.2288 13.0521L15.5934 11.0625C15.6005 11.0174 15.5977 10.9713 15.5853 10.9274C15.5728 10.8835 15.551 10.8428 15.5213 10.8081C15.4916 10.7735 15.4547 10.7457 15.4132 10.7267C15.3717 10.7076 15.3266 10.6978 15.2809 10.6979L13.0622 10.7292C12.7705 10.7292 12.5413 10.5 12.5309 10.2188L12.4893 7.66668C12.4893 7.50001 12.6247 7.35418 12.8018 7.35418L15.3018 7.31251C15.4788 7.31251 15.6143 7.17709 15.6143 7.00001L15.5726 4.50001C15.5726 4.32293 15.4372 4.18751 15.2601 4.18751L12.4476 4.22918C12.037 4.23541 11.6317 4.32261 11.2549 4.48576C10.8781 4.64892 10.5372 4.88483 10.2518 5.17997C9.9663 5.47511 9.74188 5.82368 9.59138 6.20571C9.44087 6.58774 9.36723 6.99572 9.37467 7.40626L9.42676 10.2708C9.43718 10.5625 9.20801 10.7917 8.91634 10.8021L7.66634 10.8229C7.48926 10.8229 7.35384 10.9583 7.35384 11.1354L7.38509 13.1146C7.38509 13.2917 7.52051 13.4271 7.69759 13.4271L8.94759 13.4063C9.23926 13.4063 9.46843 13.6354 9.47884 13.9167L9.57259 19.8542C9.58301 20.4375 9.11426 20.9167 8.53092 20.9167H6.13509C2.34342 20.9167 0.0830078 18.6563 0.0830078 14.8542V6.13543C0.0830078 2.34376 2.34342 0.0833435 6.13509 0.0833435H14.8643C18.6559 0.0833435 20.9163 2.34376 20.9163 6.13543V14.8646Z" fill="white"/>
</svg>
