<svg width="21" height="21" viewBox="0 0 21 21" fill="none" xmlns="http://www.w3.org/2000/svg">
<path d="M20.6462 9.53126C20.6205 9.2761 20.5006 9.03968 20.3099 8.86823C20.1192 8.69678 19.8714 8.60263 19.6149 8.60418H11.7503C11.1774 8.60418 10.7087 9.07293 10.7087 9.64584V11.4271C10.7087 12 11.1774 12.4688 11.7503 12.4688H16.4482C16.3337 13.4271 15.7087 14.875 14.3232 15.8438C13.4378 16.4583 12.2607 16.8854 10.7087 16.8854C10.6357 16.8854 10.5732 16.8854 10.5003 16.875C7.84408 16.7917 5.59408 15.0104 4.78158 12.5625C4.55626 11.8981 4.44017 11.2016 4.43783 10.5C4.43783 9.78126 4.56283 9.08334 4.77116 8.43751C4.83366 8.25001 4.90658 8.06251 4.98991 7.87501C5.94824 5.71876 8.04199 4.19793 10.5003 4.12501C10.5628 4.11459 10.6357 4.11459 10.7087 4.11459C12.1982 4.11459 13.3128 4.60418 14.0941 5.14584C14.5003 5.42709 15.042 5.36459 15.3962 5.02084L16.8441 3.60418C17.3024 3.15626 17.2607 2.39584 16.7399 2.02084C15.0837 0.802094 13.0628 0.0833435 10.7087 0.0833435C10.6357 0.0833435 10.5732 0.0833435 10.5003 0.0937602C8.6059 0.127317 6.75684 0.679008 5.15374 1.68898C3.55064 2.69895 2.25472 4.12864 1.40658 5.82293C0.698242 7.23959 0.291992 8.82293 0.291992 10.5C0.291992 12.1771 0.698242 13.7604 1.40658 15.1771H1.41699C2.26395 16.8701 3.55816 18.299 5.15934 19.309C6.76051 20.3189 8.60758 20.8713 10.5003 20.9063C10.5732 20.9167 10.6357 20.9167 10.7087 20.9167C13.5212 20.9167 15.8857 19.9896 17.6045 18.3958C19.5732 16.5729 20.7087 13.9063 20.7087 10.7292C20.7087 10.2813 20.6878 9.89584 20.6462 9.53126Z" fill="white"/>
</svg>
