<svg width="21" height="21" viewBox="0 0 21 21" fill="none" xmlns="http://www.w3.org/2000/svg">
<path d="M14.8643 0.0833435H6.13509C2.34342 0.0833435 0.0830078 2.34376 0.0830078 6.13543V14.8542C0.0830078 18.6563 2.34342 20.9167 6.13509 20.9167H14.8538C18.6455 20.9167 20.9059 18.6563 20.9059 14.8646V6.13543C20.9163 2.34376 18.6559 0.0833435 14.8643 0.0833435ZM10.4997 14.5417C8.27051 14.5417 6.45801 12.7292 6.45801 10.5C6.45801 8.27084 8.27051 6.45834 10.4997 6.45834C12.7288 6.45834 14.5413 8.27084 14.5413 10.5C14.5413 12.7292 12.7288 14.5417 10.4997 14.5417ZM16.6663 5.16668C16.6143 5.29168 16.5413 5.40626 16.4476 5.51043C16.3434 5.60418 16.2288 5.67709 16.1038 5.72918C15.9143 5.80964 15.705 5.83181 15.5028 5.79285C15.3006 5.75389 15.1145 5.65557 14.9684 5.51043C14.8747 5.40626 14.8018 5.29168 14.7497 5.16668C14.6962 5.04149 14.6679 4.90698 14.6663 4.77084C14.6663 4.63543 14.6976 4.50001 14.7497 4.37501C14.8018 4.23959 14.8747 4.13543 14.9684 4.03126C15.208 3.79168 15.5726 3.67709 15.9059 3.75001C15.9788 3.76043 16.0413 3.78126 16.1038 3.81251C16.1663 3.83334 16.2288 3.86459 16.2913 3.90626C16.3434 3.93751 16.3955 3.98959 16.4476 4.03126C16.5413 4.13543 16.6143 4.23959 16.6663 4.37501C16.7184 4.50001 16.7497 4.63543 16.7497 4.77084C16.7497 4.90626 16.7184 5.04168 16.6663 5.16668Z" fill="white"/>
</svg>
