<svg width="21" height="21" viewBox="0 0 21 21" fill="none" xmlns="http://www.w3.org/2000/svg">
<path fill-rule="evenodd" clip-rule="evenodd" d="M19.3545 0.0833435H3.25033C2.90658 0.0833435 2.57324 0.260427 2.38574 0.552094L0.781576 2.94793C0.667101 3.11714 0.605467 3.31655 0.604492 3.52084V16.75C0.604492 17.3229 1.07324 17.7917 1.64616 17.7917H3.72949C4.30241 17.7917 4.77116 18.2604 4.77116 18.8333V19.875C4.77116 20.4479 5.23991 20.9167 5.81283 20.9167H7.33366C7.67741 20.9167 8.01074 20.7396 8.19824 20.4479L9.66699 18.25C9.86491 17.9583 10.1878 17.7813 10.5316 17.7813H14.7503C15.0316 17.7813 15.292 17.6667 15.4899 17.4792L20.0837 12.8854C20.1807 12.7884 20.2574 12.6731 20.3092 12.5461C20.3611 12.4191 20.3871 12.283 20.3857 12.1458V1.12501C20.3962 0.552094 19.9274 0.0833435 19.3545 0.0833435ZM9.23991 11.3958C9.23991 11.7292 8.96908 11.9896 8.64616 11.9896H7.45866C7.30119 11.9896 7.15016 11.927 7.03881 11.8157C6.92746 11.7043 6.86491 11.5533 6.86491 11.3958V5.44793C6.86491 5.11459 7.13574 4.85418 7.45866 4.85418H8.64616C8.97949 4.85418 9.23991 5.12501 9.23991 5.44793V11.3958ZM15.1878 11.3958C15.1878 11.7292 14.917 11.9896 14.5941 11.9896H13.4066C13.3286 11.9896 13.2514 11.9742 13.1794 11.9444C13.1073 11.9146 13.0419 11.8708 12.9867 11.8157C12.9316 11.7606 12.8879 11.6951 12.858 11.6231C12.8282 11.551 12.8128 11.4738 12.8128 11.3958V5.44793C12.8128 5.11459 13.0837 4.85418 13.4066 4.85418H14.5941C14.9274 4.85418 15.1878 5.12501 15.1878 5.44793V11.3958Z" fill="white"/>
</svg>
